<mxfile host="app.diagrams.net" agent="Mozilla/5.0 (Windows NT 10.0; Win64; x64) AppleWebKit/537.36 (KHTML, like Gecko) Chrome/129.0.0.0 Safari/537.36" version="24.7.7">
  <diagram name="Side-1" id="0WMheMV4ddzdrjsgfxew">
    <mxGraphModel dx="1173" dy="475" grid="0" gridSize="10" guides="1" tooltips="1" connect="1" arrows="1" fold="1" page="1" pageScale="1" pageWidth="827" pageHeight="1169" math="0" shadow="0">
      <root>
        <mxCell id="0" />
        <mxCell id="1" parent="0" />
        <mxCell id="hhY3yHYCwyU4RzXIg7WI-4" value="&lt;b&gt;Frontend (React)&lt;/b&gt;&lt;div&gt;- Derive encryption key from master password using PBKDF2&lt;br&gt;- Hash master password using Argon2id&lt;br&gt;- Decryption happens only on the frontend&lt;br&gt;&lt;/div&gt;" style="ellipse;whiteSpace=wrap;html=1;" vertex="1" parent="1">
          <mxGeometry x="138.5" y="30" width="260" height="140" as="geometry" />
        </mxCell>
        <mxCell id="hhY3yHYCwyU4RzXIg7WI-7" value="" style="endArrow=classic;html=1;rounded=0;exitX=0;exitY=0.5;exitDx=0;exitDy=0;" edge="1" parent="1" source="hhY3yHYCwyU4RzXIg7WI-26" target="hhY3yHYCwyU4RzXIg7WI-4">
          <mxGeometry width="50" height="50" relative="1" as="geometry">
            <mxPoint x="436" y="150" as="sourcePoint" />
            <mxPoint x="506" y="360" as="targetPoint" />
          </mxGeometry>
        </mxCell>
        <mxCell id="hhY3yHYCwyU4RzXIg7WI-30" value="&lt;span style=&quot;font-size: 12px; text-wrap: wrap; background-color: rgb(251, 251, 251);&quot;&gt;User logs in with master password&lt;/span&gt;" style="edgeLabel;html=1;align=center;verticalAlign=middle;resizable=0;points=[];" vertex="1" connectable="0" parent="hhY3yHYCwyU4RzXIg7WI-7">
          <mxGeometry x="-0.0885" y="3" relative="1" as="geometry">
            <mxPoint as="offset" />
          </mxGeometry>
        </mxCell>
        <mxCell id="hhY3yHYCwyU4RzXIg7WI-12" value="&lt;b&gt;Backend&amp;nbsp;&lt;span style=&quot;background-color: initial;&quot;&gt;(C#)&lt;/span&gt;&lt;/b&gt;&lt;div&gt;&lt;span style=&quot;background-color: initial;&quot;&gt;- Compare received hash with stored hash for authentication&lt;/span&gt;&lt;/div&gt;&lt;div&gt;&lt;span style=&quot;background-color: initial;&quot;&gt;- Send encrypted passwords to the Frontend after successful login&lt;/span&gt;&lt;/div&gt;" style="ellipse;whiteSpace=wrap;html=1;" vertex="1" parent="1">
          <mxGeometry x="121" y="350" width="295" height="190" as="geometry" />
        </mxCell>
        <mxCell id="hhY3yHYCwyU4RzXIg7WI-15" value="DataBase&lt;br&gt;&lt;div&gt;&lt;span style=&quot;background-color: initial;&quot;&gt;- Store hashed master password&lt;/span&gt;&lt;/div&gt;&lt;div&gt;&lt;span style=&quot;background-color: initial;&quot;&gt;- Store encrypted user data&lt;/span&gt;&lt;/div&gt;" style="shape=cylinder3;whiteSpace=wrap;html=1;boundedLbl=1;backgroundOutline=1;size=15;" vertex="1" parent="1">
          <mxGeometry x="204.75" y="610" width="127.5" height="170" as="geometry" />
        </mxCell>
        <mxCell id="hhY3yHYCwyU4RzXIg7WI-23" value="" style="endArrow=classic;html=1;rounded=0;exitX=0.5;exitY=1;exitDx=0;exitDy=0;entryX=0.5;entryY=0;entryDx=0;entryDy=0;" edge="1" parent="1" source="hhY3yHYCwyU4RzXIg7WI-4" target="hhY3yHYCwyU4RzXIg7WI-12">
          <mxGeometry width="50" height="50" relative="1" as="geometry">
            <mxPoint x="456" y="410" as="sourcePoint" />
            <mxPoint x="506" y="360" as="targetPoint" />
          </mxGeometry>
        </mxCell>
        <mxCell id="hhY3yHYCwyU4RzXIg7WI-28" value="&lt;div&gt;&lt;font style=&quot;font-size: 12px;&quot;&gt;Send hashed master password to Backend for authentication&lt;/font&gt;&lt;br&gt;&lt;/div&gt;" style="edgeLabel;html=1;align=center;verticalAlign=middle;resizable=0;points=[];" vertex="1" connectable="0" parent="hhY3yHYCwyU4RzXIg7WI-23">
          <mxGeometry x="-0.136" y="-1" relative="1" as="geometry">
            <mxPoint as="offset" />
          </mxGeometry>
        </mxCell>
        <mxCell id="hhY3yHYCwyU4RzXIg7WI-26" value="&lt;b&gt;User&lt;/b&gt;" style="ellipse;whiteSpace=wrap;html=1;aspect=fixed;" vertex="1" parent="1">
          <mxGeometry x="586" y="60" width="80" height="80" as="geometry" />
        </mxCell>
        <mxCell id="hhY3yHYCwyU4RzXIg7WI-41" value="" style="endArrow=classic;html=1;rounded=0;exitX=1;exitY=0;exitDx=0;exitDy=0;" edge="1" parent="1" source="hhY3yHYCwyU4RzXIg7WI-12" target="hhY3yHYCwyU4RzXIg7WI-42">
          <mxGeometry width="50" height="50" relative="1" as="geometry">
            <mxPoint x="386" y="280" as="sourcePoint" />
            <mxPoint x="446" y="260" as="targetPoint" />
          </mxGeometry>
        </mxCell>
        <mxCell id="hhY3yHYCwyU4RzXIg7WI-42" value="&lt;span style=&quot;text-align: left;&quot;&gt;Send encrypted passwords from Backend and&amp;nbsp;Decrypt passwords using derived key&lt;/span&gt;" style="rounded=0;whiteSpace=wrap;html=1;" vertex="1" parent="1">
          <mxGeometry x="456" y="210" width="180" height="70" as="geometry" />
        </mxCell>
        <mxCell id="hhY3yHYCwyU4RzXIg7WI-43" value="" style="endArrow=classic;html=1;rounded=0;entryX=1;entryY=1;entryDx=0;entryDy=0;exitX=0.25;exitY=0;exitDx=0;exitDy=0;" edge="1" parent="1" source="hhY3yHYCwyU4RzXIg7WI-42" target="hhY3yHYCwyU4RzXIg7WI-4">
          <mxGeometry width="50" height="50" relative="1" as="geometry">
            <mxPoint x="386" y="280" as="sourcePoint" />
            <mxPoint x="436" y="230" as="targetPoint" />
          </mxGeometry>
        </mxCell>
        <mxCell id="hhY3yHYCwyU4RzXIg7WI-48" value="" style="endArrow=classic;startArrow=classic;html=1;rounded=0;" edge="1" parent="1" source="hhY3yHYCwyU4RzXIg7WI-15" target="hhY3yHYCwyU4RzXIg7WI-12">
          <mxGeometry width="50" height="50" relative="1" as="geometry">
            <mxPoint x="420" y="470" as="sourcePoint" />
            <mxPoint x="280" y="540" as="targetPoint" />
          </mxGeometry>
        </mxCell>
      </root>
    </mxGraphModel>
  </diagram>
</mxfile>
